# xmcd
#
# Track frame offsets: 
#        150
#        14333
#        28103
#        41765
#        55038
#        68338
#        81618
#        94938
#        105318
#        119240
#        134985
#        149573
#        163330
#        177993
#
# Disc length: 2574 seconds
#
# Revision: 5
# Processed by: cddbd v1.5.2PL0 Copyright (c) Steve Scherf et al.
# Submitted via: ExactAudioCopy v0.99pb4
#
DISCID=d30a0c0e
DTITLE=Various Artist - Harmonica Blues
DYEAR=0
DGENRE=
TTITLE0=Freeman Stowers - Railroad Blues
TTITLE1=State Street Boys - Crazy About You
TTITLE2=Carver Boys - Wang Wang Harmonica Blues
TTITLE3=Lee Brown - My Driving Wheel
TTITLE4=Ashley and Foster - Bay Rum Blues
TTITLE5=Robert Hill - I'm Going to Write and Tell Mother
TTITLE6=Chuck Darling - Blowin' the Blues
TTITLE7=Chuck Darling - Harmonica Rag
TTITLE8=Jaybird Coleman - Man Trouble Blues
TTITLE9=Jazz Gillum - I Want You by My Side
TTITLE10=Alfred Lewis - Friday Moan Blues
TTITLE11=Chicken Wilson and Skeeter Hinton - House Snake Blues
TTITLE12=Bobby Leecan and Robert Cooksey - Need More Blues
TTITLE13=De Ford Bailey - Davidson County Blues
EXTD=
EXTT0=1929\n
EXTT1=1935\n
EXTT2=1929\n
EXTT3=1939\n
EXTT4=1933\n
EXTT5=1936\n
EXTT6=1930\n
EXTT7=1930\n
EXTT8=1930\n
EXTT9=1936\n
EXTT10=1930\n
EXTT11=1928\n
EXTT12=1926\n
EXTT13=1928\n
PLAYORDER=
